<?xml version="1.0" standalone="no"?>
<!DOCTYPE svg PUBLIC "-//W3C//DTD SVG 20010904//EN"
 "http://www.w3.org/TR/2001/REC-SVG-20010904/DTD/svg10.dtd">
<svg version="1.0" xmlns="http://www.w3.org/2000/svg"
 width="699.000000pt" height="699.000000pt" viewBox="0 0 699.000000 699.000000"
 preserveAspectRatio="xMidYMid meet">
<metadata>
Created by potrace 1.14, written by Peter Selinger 2001-2017
</metadata>
<g transform="translate(0.000000,699.000000) scale(0.100000,-0.100000)"
fill="#000000" stroke="none">
<path d="M2207 4353 c-1 -1 -27 -4 -57 -7 -221 -21 -379 -160 -425 -371 -12
-57 -14 -150 -12 -515 2 -245 6 -457 10 -471 4 -14 14 -46 22 -70 53 -148 179
-253 350 -290 80 -17 1882 -20 1899 -3 13 12 14 1042 2 1062 -10 16 -131 16
-143 0 -5 -8 -9 -197 -9 -464 l1 -451 -835 1 c-646 2 -843 5 -870 15 -106 38
-167 84 -213 157 -53 86 -56 112 -57 535 0 257 3 405 11 432 39 150 141 244
293 272 66 12 2474 14 2532 2 163 -34 265 -137 294 -298 15 -84 7 -816 -9
-854 -54 -122 -94 -171 -171 -210 -72 -36 -126 -47 -259 -51 -69 -2 -127 -6
-129 -9 -8 -8 -9 -123 -2 -136 9 -13 234 -16 320 -4 190 26 344 153 389 320
22 85 24 123 26 530 1 460 -3 512 -53 620 -56 118 -194 220 -337 246 -42 8
-435 12 -1313 13 -690 0 -1254 0 -1255 -1z"/>
</g>
</svg>
